<svg width="64" height="66" viewBox="0 0 64 66" fill="none" xmlns="http://www.w3.org/2000/svg">
<path d="M49.7348 43.3674C46.8087 48.3349 41.7552 52.2964 36.1724 54.2689C30.591 56.2409 24.5958 56.1894 19.7239 53.3196C14.852 50.4498 11.9005 45.2311 10.9194 39.3935C9.93812 33.5544 10.9531 27.2139 13.8792 22.2465C16.8053 17.279 21.8588 13.3175 27.4416 11.345C33.023 9.37298 39.0182 9.42444 43.8901 12.2943C48.762 15.1641 51.7135 20.3827 52.6945 26.2204C53.6758 32.0595 52.6609 38.4 49.7348 43.3674Z" stroke="#232C52" stroke-width="2"/>
<g clip-path="url(#clip0_1003_178)">
<path d="M32.7066 23.1274C35.8613 23.1274 36.2316 23.1415 37.4785 23.1977C38.6316 23.2493 39.2551 23.4415 39.6722 23.6055C40.2254 23.8211 40.6191 24.0743 41.0316 24.4868C41.4441 24.8993 41.7019 25.293 41.9129 25.8461C42.0722 26.2633 42.2691 26.8868 42.3207 28.0399C42.3769 29.2868 42.391 29.6571 42.391 32.8118C42.391 35.9665 42.3769 36.3368 42.3207 37.5836C42.2691 38.7368 42.0769 39.3602 41.9129 39.7774C41.6972 40.3305 41.4441 40.7243 41.0316 41.1368C40.6191 41.5493 40.2254 41.8071 39.6722 42.018C39.2551 42.1774 38.6316 42.3743 37.4785 42.4258C36.2316 42.4821 35.8613 42.4961 32.7066 42.4961C29.5519 42.4961 29.1816 42.4821 27.9347 42.4258C26.7816 42.3743 26.1582 42.1821 25.741 42.018C25.1879 41.8024 24.7941 41.5493 24.3816 41.1368C23.9691 40.7243 23.7113 40.3305 23.5004 39.7774C23.341 39.3602 23.1441 38.7368 23.0926 37.5836C23.0363 36.3368 23.0222 35.9665 23.0222 32.8118C23.0222 29.6571 23.0363 29.2868 23.0926 28.0399C23.1441 26.8868 23.3363 26.2633 23.5004 25.8461C23.716 25.293 23.9691 24.8993 24.3816 24.4868C24.7941 24.0743 25.1879 23.8165 25.741 23.6055C26.1582 23.4461 26.7816 23.2493 27.9347 23.1977C29.1816 23.1368 29.5519 23.1274 32.7066 23.1274ZM32.7066 20.9993C29.5004 20.9993 29.0972 21.0133 27.8363 21.0696C26.5801 21.1258 25.7222 21.3274 24.9722 21.618C24.1941 21.918 23.5379 22.3258 22.8816 22.9821C22.2254 23.6383 21.8222 24.2993 21.5176 25.0727C21.2269 25.8227 21.0254 26.6805 20.9691 27.9415C20.9129 29.1977 20.8988 29.6008 20.8988 32.8071C20.8988 36.0133 20.9129 36.4165 20.9691 37.6774C21.0254 38.9336 21.2269 39.7915 21.5176 40.5461C21.8176 41.3243 22.2254 41.9805 22.8816 42.6368C23.5379 43.293 24.1988 43.6961 24.9722 44.0008C25.7222 44.2915 26.5801 44.493 27.841 44.5493C29.1019 44.6055 29.5004 44.6196 32.7113 44.6196C35.9222 44.6196 36.3207 44.6055 37.5816 44.5493C38.8379 44.493 39.6957 44.2915 40.4504 44.0008C41.2285 43.7008 41.8847 43.293 42.541 42.6368C43.1972 41.9805 43.6004 41.3196 43.9051 40.5461C44.1957 39.7961 44.3972 38.9383 44.4535 37.6774C44.5097 36.4165 44.5238 36.018 44.5238 32.8071C44.5238 29.5961 44.5097 29.1977 44.4535 27.9368C44.3972 26.6805 44.1957 25.8227 43.9051 25.068C43.6051 24.2899 43.1972 23.6336 42.541 22.9774C41.8847 22.3211 41.2238 21.918 40.4504 21.6133C39.7004 21.3227 38.8426 21.1211 37.5816 21.0649C36.316 21.0133 35.9129 20.9993 32.7066 20.9993Z" fill="#232C52"/>
<path d="M32.7066 26.7415C29.3597 26.7415 26.641 29.4555 26.641 32.8071C26.641 36.1586 29.3597 38.8727 32.7066 38.8727C36.0535 38.8727 38.7722 36.154 38.7722 32.8071C38.7722 29.4602 36.0535 26.7415 32.7066 26.7415ZM32.7066 36.7446C30.5316 36.7446 28.7691 34.9821 28.7691 32.8071C28.7691 30.6321 30.5316 28.8696 32.7066 28.8696C34.8816 28.8696 36.6441 30.6321 36.6441 32.8071C36.6441 34.9821 34.8816 36.7446 32.7066 36.7446Z" fill="#232C52"/>
<path d="M39.0113 27.918C39.7932 27.918 40.427 27.2842 40.427 26.5024C40.427 25.7206 39.7932 25.0868 39.0113 25.0868C38.2295 25.0868 37.5957 25.7206 37.5957 26.5024C37.5957 27.2842 38.2295 27.918 39.0113 27.918Z" fill="#232C52"/>
</g>
<defs>
<clipPath id="clip0_1003_178">
<rect width="24" height="24" fill="white" transform="translate(20.7066 20.8071)"/>
</clipPath>
</defs>
</svg>
