<svg width="84" height="37" viewBox="0 0 84 37" fill="none" xmlns="http://www.w3.org/2000/svg">
<path d="M19.8537 36H0.509687V3.648H7.90169V29.52H19.8537V36ZM30.4752 36H23.4672V11.664H30.4752V36ZM29.8512 1.728C30.6512 2.528 31.0512 3.488 31.0512 4.608C31.0512 5.728 30.6512 6.688 29.8512 7.488C29.0512 8.288 28.0912 8.688 26.9712 8.688C25.8512 8.688 24.8912 8.288 24.0912 7.488C23.2912 6.688 22.8912 5.728 22.8912 4.608C22.8912 3.488 23.2912 2.528 24.0912 1.728C24.8912 0.927999 25.8512 0.527999 26.9712 0.527999C28.0912 0.527999 29.0512 0.927999 29.8512 1.728ZM58.3328 36H51.3248V21.504C51.3248 20.064 50.9888 18.976 50.3168 18.24C49.6448 17.472 48.7008 17.088 47.4848 17.088C46.2048 17.088 45.1328 17.6 44.2688 18.624C43.4368 19.616 43.0208 21.12 43.0208 23.136V36H36.0128V11.664H43.0208V15.792C43.6288 14.448 44.5568 13.392 45.8048 12.624C47.0848 11.824 48.6048 11.424 50.3648 11.424C52.8608 11.424 54.8128 12.176 56.2208 13.68C57.6288 15.152 58.3328 17.328 58.3328 20.208V36ZM82.4806 34.608C80.8166 35.696 78.2726 36.24 74.8486 36.24C70.8486 36.24 67.7286 35.088 65.4886 32.784C63.2806 30.448 62.1766 27.456 62.1766 23.808C62.1766 19.936 63.2486 16.912 65.3926 14.736C67.5686 12.528 70.2406 11.424 73.4086 11.424C76.6726 11.424 79.2486 12.384 81.1366 14.304C83.0246 16.192 83.9686 19.024 83.9686 22.8C83.9686 23.536 83.8406 24.8 83.5846 26.592H69.2806C69.7606 27.936 70.5926 28.976 71.7766 29.712C72.9606 30.448 74.3846 30.816 76.0486 30.816C78.5126 30.816 80.6566 30.128 82.4806 28.752V34.608ZM73.6966 16.752C72.5766 16.752 71.5846 17.168 70.7206 18C69.8566 18.8 69.2806 20 68.9926 21.6H77.4406V21.024C77.2166 18.176 75.9686 16.752 73.6966 16.752Z" fill="#222C52"/>
</svg>
